<svg width="180" height="147" viewBox="0 0 180 147" fill="none" xmlns="http://www.w3.org/2000/svg">
<path d="M152.636 0H26.9358C19.792 0 12.9408 2.90387 7.88933 8.0728C2.83788 13.2417 0 20.2523 0 27.5623V119.436C0 126.746 2.83788 133.757 7.88933 138.926C12.9408 144.095 19.792 146.999 26.9358 146.999H152.636C159.78 146.999 166.632 144.095 171.683 138.926C176.734 133.757 179.572 126.746 179.572 119.436V27.5623C179.572 20.2523 176.734 13.2417 171.683 8.0728C166.632 2.90387 159.78 0 152.636 0ZM148.955 18.3748L96.161 72.3969C95.3263 73.258 94.3332 73.9415 93.2391 74.4079C92.145 74.8743 90.9714 75.1145 89.7861 75.1145C88.6009 75.1145 87.4273 74.8743 86.3332 74.4079C85.239 73.9415 84.246 73.258 83.4113 72.3969L30.6171 18.3748H148.955ZM161.615 119.436C161.615 121.873 160.669 124.21 158.985 125.933C157.301 127.656 155.018 128.624 152.636 128.624H26.9358C24.5546 128.624 22.2708 127.656 20.587 125.933C18.9032 124.21 17.9572 121.873 17.9572 119.436V31.3291L70.7515 85.3511C75.802 90.5126 82.6481 93.4118 89.7861 93.4118C96.9242 93.4118 103.77 90.5126 108.821 85.3511L161.615 31.3291V119.436Z" fill="#AE825D"/>
</svg>
