<svg width="144" height="184" viewBox="0 0 144 184" fill="none" xmlns="http://www.w3.org/2000/svg">
<path d="M71.9278 0C52.8513 0 34.5562 7.75432 21.0672 21.5571C7.57808 35.3599 0 54.0804 0 73.6005C0 123.281 63.3864 179.401 66.0837 181.793C67.7122 183.219 69.7848 184.002 71.9278 184.002C74.0708 184.002 76.1433 183.219 77.7719 181.793C80.9187 179.401 143.856 123.281 143.856 73.6005C143.856 54.0804 136.277 35.3599 122.788 21.5571C109.299 7.75432 91.0042 0 71.9278 0ZM71.9278 162.381C52.777 143.981 17.9819 104.329 17.9819 73.6005C17.9819 58.9605 23.6655 44.92 33.7823 34.5679C43.8991 24.2159 57.6205 18.4001 71.9278 18.4001C86.2351 18.4001 99.9565 24.2159 110.073 34.5679C120.19 44.92 125.874 58.9605 125.874 73.6005C125.874 104.329 91.0786 144.073 71.9278 162.381ZM71.9278 36.8003C64.8148 36.8003 57.8615 38.9586 51.9473 43.0022C46.0331 47.0459 41.4235 52.7933 38.7015 59.5177C35.9795 66.242 35.2673 73.6413 36.6549 80.7799C38.0426 87.9184 41.4678 94.4756 46.4975 99.6222C51.5271 104.769 57.9353 108.274 64.9116 109.694C71.8879 111.114 79.119 110.385 85.6906 107.6C92.2621 104.814 97.8789 100.097 101.831 94.0456C105.782 87.9939 107.892 80.8789 107.892 73.6005C107.892 63.8405 104.103 54.4802 97.3581 47.5788C90.6136 40.6774 81.466 36.8003 71.9278 36.8003ZM71.9278 92.0006C68.3713 92.0006 64.8947 90.9215 61.9375 88.8997C58.9804 86.8778 56.6756 84.0041 55.3146 80.6419C53.9536 77.2798 53.5975 73.5801 54.2914 70.0108C54.9852 66.4416 56.6978 63.163 59.2126 60.5897C61.7274 58.0164 64.9315 56.2639 68.4197 55.5539C71.9078 54.844 75.5234 55.2084 78.8092 56.601C82.0949 57.9937 84.9033 60.3521 86.8792 63.378C88.8551 66.4038 89.9097 69.9613 89.9097 73.6005C89.9097 78.4805 88.0152 83.1607 84.6429 86.6114C81.2707 90.0621 76.6969 92.0006 71.9278 92.0006Z" fill="#AE825D"/>
</svg>
