<svg width="179" height="181" viewBox="0 0 179 181" fill="none" xmlns="http://www.w3.org/2000/svg">
<path d="M156.82 99.5974C154.844 99.5974 152.778 98.9613 150.802 98.5069C146.8 97.6148 142.867 96.4304 139.035 94.963C134.868 93.4293 130.287 93.509 126.174 95.1866C122.062 96.8642 118.708 100.021 116.758 104.05L114.782 108.139C106.033 103.216 97.993 97.1005 90.8878 89.9651C83.8344 82.7773 77.7896 74.6442 72.9226 65.7934L76.6953 63.249C80.6779 61.2764 83.7986 57.8834 85.4569 53.723C87.1152 49.5625 87.1939 44.9287 85.6779 40.713C84.2517 36.8276 83.0814 32.8509 82.1747 28.809C81.7256 26.8098 81.3662 24.7198 81.0968 22.6297C80.006 16.229 76.6919 10.4325 71.7514 6.28424C66.8109 2.13596 60.5687 -0.0915419 54.1489 0.00288336H27.2009C23.3297 -0.0338879 19.4961 0.773591 15.961 2.37035C12.426 3.9671 9.27257 6.31565 6.7154 9.2561C4.15822 12.1966 2.25735 15.6599 1.14219 19.4103C0.027026 23.1607 -0.276247 27.1102 0.253016 30.9899C5.03841 69.0591 22.2248 104.431 49.0975 131.517C75.9702 158.603 110.997 175.861 148.646 180.563H152.06C158.684 180.573 165.079 178.115 170.025 173.657C172.867 171.086 175.137 167.934 176.685 164.409C178.234 160.885 179.025 157.068 179.008 153.211V125.95C178.898 119.638 176.625 113.56 172.579 108.754C168.533 103.948 162.963 100.712 156.82 99.5974ZM161.312 154.12C161.31 155.41 161.037 156.685 160.51 157.86C159.984 159.035 159.216 160.084 158.258 160.935C157.257 161.817 156.084 162.475 154.814 162.866C153.545 163.258 152.209 163.374 150.892 163.207C117.251 158.843 86.0034 143.274 62.078 118.956C38.1525 94.6367 22.9109 62.9522 18.7573 28.8998C18.6143 27.5687 18.7396 26.2221 19.1256 24.9414C19.5115 23.6607 20.1502 22.4724 21.0029 21.4484C21.8447 20.4791 22.8808 19.7022 24.0424 19.1695C25.2041 18.6368 26.4645 18.3604 27.7399 18.3588H54.6878C56.7767 18.3118 58.8164 19.0029 60.456 20.3132C62.0955 21.6235 63.2322 23.4709 63.6704 25.5376C64.0297 28.0214 64.4789 30.4749 65.0178 32.8981C66.0555 37.6884 67.4365 42.3958 69.1499 46.9831L56.5742 52.8897C55.4989 53.3888 54.5317 54.0978 53.7281 54.9761C52.9245 55.8544 52.3002 56.8846 51.8913 58.0075C51.4823 59.1305 51.2966 60.3242 51.3449 61.52C51.3932 62.7157 51.6745 63.8901 52.1727 64.9756C65.1005 92.9888 87.3599 115.507 115.051 128.585C117.238 129.494 119.691 129.494 121.878 128.585C122.998 128.18 124.028 127.553 124.907 126.742C125.786 125.931 126.496 124.951 126.998 123.86L132.567 111.138C137.211 112.818 141.95 114.214 146.76 115.318C149.155 115.863 151.581 116.318 154.036 116.681C156.079 117.124 157.905 118.274 159.2 119.933C160.495 121.592 161.179 123.655 161.132 125.768L161.312 154.12Z" fill="#AE825D"/>
</svg>
