<?xml version="1.0" encoding="UTF-8"?> <svg xmlns="http://www.w3.org/2000/svg" width="134" height="134" viewBox="0 0 134 134" fill="none"> <path d="M117.397 73.7026C115.918 73.7026 114.371 73.2319 112.892 72.8957C109.896 72.2355 106.952 71.3591 104.083 70.2732C100.963 69.1383 97.5343 69.1972 94.4555 70.4386C91.3768 71.68 88.866 74.0162 87.4062 76.9977L85.9268 80.0237C79.3771 76.3802 73.3586 71.855 68.0396 66.5747C62.7593 61.2557 58.2341 55.2372 54.5906 48.6875L57.4149 46.8046C60.3963 45.3449 62.7325 42.834 63.9739 39.7553C65.2154 36.6766 65.2743 33.2475 64.1394 30.1279C63.0717 27.2526 62.1956 24.3098 61.5169 21.3188C61.1806 19.8394 60.9117 18.2928 60.7099 16.7461C59.8933 12.0095 57.4124 7.72012 53.7139 4.65037C50.0154 1.58062 45.3424 -0.0677415 40.5364 0.0021337H20.3629C17.4649 -0.0250773 14.595 0.572462 11.9486 1.75407C9.30225 2.93568 6.94155 4.67362 5.02722 6.84957C3.11289 9.02552 1.68988 11.5884 0.855056 14.3637C0.020232 17.1391 -0.206802 20.0617 0.18941 22.9327C3.77181 51.1042 16.6377 77.2793 36.7549 97.3234C56.8721 117.367 83.0938 130.138 111.278 133.618H113.833C118.792 133.625 123.58 131.806 127.282 128.507C129.41 126.605 131.109 124.272 132.268 121.664C133.428 119.056 134.02 116.231 134.007 113.377V93.2037C133.925 88.5328 132.224 84.0352 129.195 80.4787C126.165 76.9222 121.996 74.5272 117.397 73.7026ZM120.76 114.05C120.759 115.004 120.554 115.948 120.16 116.818C119.766 117.687 119.191 118.463 118.473 119.093C117.724 119.745 116.846 120.232 115.896 120.522C114.946 120.812 113.945 120.898 112.959 120.774C87.7754 117.545 64.3831 106.024 46.4722 88.0278C28.5614 70.0317 17.1514 46.585 14.0419 21.386C13.9349 20.401 14.0287 19.4045 14.3176 18.4568C14.6065 17.509 15.0846 16.6297 15.723 15.872C16.3532 15.1547 17.1288 14.5798 17.9984 14.1856C18.868 13.7913 19.8116 13.5868 20.7664 13.5856H40.9399C42.5036 13.5508 44.0306 14.0623 45.258 15.0319C46.4853 16.0015 47.3363 17.3686 47.6644 18.898C47.9334 20.736 48.2696 22.5516 48.6731 24.3448C49.4499 27.8896 50.4837 31.3731 51.7663 34.7678L42.352 39.1387C41.5471 39.508 40.823 40.0327 40.2214 40.6826C39.6198 41.3326 39.1525 42.0949 38.8464 42.9259C38.5402 43.7569 38.4012 44.6402 38.4373 45.5251C38.4735 46.41 38.6841 47.279 39.057 48.0823C48.7349 68.8123 65.3985 85.4759 86.1285 95.1538C87.7657 95.8264 89.602 95.8264 91.2392 95.1538C92.0778 94.8538 92.8485 94.3903 93.5065 93.79C94.1644 93.1897 94.6966 92.4647 95.0721 91.6571L99.2413 82.2428C102.718 83.486 106.266 84.5189 109.866 85.336C111.659 85.7395 113.475 86.0757 115.313 86.3447C116.842 86.6728 118.209 87.5238 119.179 88.7511C120.149 89.9785 120.66 91.5054 120.625 93.0692L120.76 114.05Z" fill="white"></path> </svg> 