<?xml version="1.0" encoding="UTF-8"?> <svg xmlns="http://www.w3.org/2000/svg" width="151" height="135" viewBox="0 0 151 135" fill="none"> <path d="M145.781 3.18237C143.829 1.591 141.473 0.548043 138.964 0.164485C136.456 -0.219073 133.888 0.0711218 131.534 1.00419L8.67677 49.6143C6.04939 50.6737 3.81288 52.4911 2.26411 54.8252C0.715329 57.1594 -0.0724804 59.9 0.00524424 62.6832C0.0829689 65.4664 1.02255 68.1606 2.69928 70.4083C4.37601 72.6559 6.7106 74.3507 9.39317 75.2677L34.2445 83.7378L48.0961 128.628C48.2843 129.228 48.5575 129.798 48.9076 130.324C48.9608 130.404 49.0357 130.464 49.0922 130.543C49.4967 131.096 49.9856 131.585 50.5416 131.992C50.6998 132.11 50.8512 132.221 51.0203 132.326C51.6711 132.749 52.3919 133.058 53.1505 133.24L53.2317 133.247L53.2777 133.266C53.7338 133.357 54.1981 133.403 54.6635 133.404C54.7083 133.404 54.7481 133.383 54.7924 133.382C55.4948 133.37 56.1911 133.252 56.8565 133.031C57.0113 132.979 57.144 132.893 57.2942 132.83C57.7904 132.629 58.2605 132.371 58.6947 132.061C59.0425 131.774 59.3903 131.487 59.7383 131.2L78.263 111.156L105.893 132.131C108.325 133.987 111.319 134.996 114.402 134.998C117.632 134.994 120.763 133.902 123.269 131.905C125.775 129.908 127.504 127.127 128.167 124.028L150.534 16.4224C151.041 14.0006 150.866 11.4892 150.029 9.15705C149.192 6.82489 147.723 4.75968 145.781 3.18237ZM57.3819 85.8767C56.4313 86.8046 55.7815 87.9869 55.514 89.2753L53.3922 99.3798L48.017 81.9585L75.8865 67.7359L57.3819 85.8767ZM114.295 121.509L81.644 96.7217C80.278 95.6873 78.5644 95.1952 76.8447 95.3436C75.1251 95.4919 73.5256 96.2698 72.3649 97.5222L66.4321 103.94L68.5288 93.953L117.087 46.3664C118.246 45.2321 118.952 43.7285 119.077 42.1279C119.202 40.5274 118.739 38.9357 117.77 37.6413C116.801 36.3469 115.391 35.4353 113.796 35.0717C112.201 34.708 110.525 34.9164 109.073 35.6589L39.3844 71.2171L13.8519 62.0605L137.104 13.7388L114.295 121.509Z" fill="white"></path> </svg> 