<svg width="180" height="182" viewBox="0 0 180 182" fill="none" xmlns="http://www.w3.org/2000/svg">
<path d="M89.9541 0C72.1628 0 54.7711 5.33706 39.9783 15.3363C25.1854 25.3355 13.6558 39.5477 6.84738 56.1758C0.0389756 72.8039 -1.74241 91.1009 1.72848 108.753C5.19938 126.405 13.7667 142.62 26.347 155.347C38.9273 168.073 54.9555 176.74 72.4049 180.251C89.8543 183.763 107.941 181.961 124.378 175.073C140.815 168.185 154.864 156.522 164.748 141.557C174.632 126.592 179.908 108.998 179.908 91C179.908 79.0497 177.581 67.2164 173.061 56.1758C168.54 45.1352 161.914 35.1034 153.561 26.6533C145.208 18.2032 135.292 11.5001 124.378 6.92696C113.464 2.35379 101.767 0 89.9541 0ZM89.9541 163.8C75.7211 163.8 61.8077 159.53 49.9734 151.531C38.1391 143.532 28.9154 132.162 23.4687 118.859C18.022 105.557 16.5969 90.9192 19.3736 76.7974C22.1503 62.6756 29.0041 49.7039 39.0684 39.5226C49.1326 29.3414 61.9552 22.4078 75.9147 19.5988C89.8742 16.7898 104.344 18.2315 117.493 23.7416C130.643 29.2516 141.882 38.5826 149.789 50.5545C157.697 62.5264 161.917 76.6015 161.917 91C161.917 110.308 154.335 128.825 140.84 142.477C127.344 156.13 109.04 163.8 89.9541 163.8ZM89.9541 36.4C87.5683 36.4 85.2803 37.3588 83.5934 39.0653C81.9064 40.7719 80.9587 43.0865 80.9587 45.5V85.722L62.0683 96.733C60.3354 97.7264 58.9774 99.2735 58.2073 101.132C57.4372 102.99 57.2985 105.054 57.813 107.001C58.3275 108.947 59.4661 110.666 61.0501 111.888C62.6342 113.109 64.5743 113.764 66.566 113.75C68.1418 113.761 69.6928 113.353 71.0637 112.567L94.4518 98.917L95.2614 98.098L96.7006 96.915C97.0523 96.4645 97.354 95.9762 97.6002 95.459C97.8933 94.9705 98.1345 94.4519 98.3198 93.912C98.5645 93.3334 98.7163 92.719 98.7696 92.092L98.9495 91V45.5C98.9495 43.0865 98.0017 40.7719 96.3148 39.0653C94.6278 37.3588 92.3398 36.4 89.9541 36.4Z" fill="#AE825D"/>
</svg>
