<?xml version="1.0" encoding="UTF-8"?> <svg xmlns="http://www.w3.org/2000/svg" width="134" height="132" viewBox="0 0 134 132" fill="none"> <path d="M87.5909 0H46.4824C8.93341 0 0 8.75109 0 45.4653V85.7349C0 122.517 8.86393 131.269 46.4125 131.269H87.521C125.07 131.269 134.003 122.586 134.003 85.803V45.5338C134.003 8.75109 125.14 0 87.5909 0ZM108.18 93.6655H98.4088C94.7099 93.6655 93.593 90.7256 86.9628 84.2306C81.1696 78.7612 78.727 78.0774 77.2614 78.0774C75.2375 78.0774 74.6789 78.6242 74.6789 81.3591V89.9736C74.6789 92.2983 73.9113 93.6655 67.6998 93.6655C61.6723 93.2688 55.8271 91.4751 50.6458 88.4321C45.4645 85.3892 41.0952 81.184 37.8979 76.1629C30.3073 66.9079 25.0259 56.0456 22.4737 44.4398C22.4737 43.004 23.0318 41.7049 25.8237 41.7049H35.5947C38.1072 41.7049 39.0147 42.7989 39.9917 45.3287C44.7375 59.0024 52.8338 70.8986 56.1139 70.8986C57.3702 70.8986 57.9284 70.3518 57.9284 67.2752V53.1909C57.5097 46.7645 54.0201 46.2173 54.0201 43.893C54.0661 43.2797 54.3542 42.7082 54.8233 42.2997C55.2924 41.8911 55.9056 41.6778 56.5327 41.7049H71.8874C73.9812 41.7049 74.6789 42.7304 74.6789 45.1917V64.1986C74.6789 66.2497 75.5863 66.9331 76.2145 66.9331C77.4707 66.9331 78.4477 66.2497 80.7509 63.9935C85.7002 58.081 89.7442 51.494 92.7555 44.4398C93.0629 43.591 93.6455 42.8641 94.4143 42.3702C95.1831 41.8764 96.0959 41.6427 97.0131 41.7049H106.784C109.715 41.7049 110.343 43.1407 109.715 45.1917C106.16 52.9911 101.761 60.3946 96.5943 67.2752C95.5474 68.8475 95.1286 69.668 96.5943 71.5139C97.5713 72.9497 100.991 75.7527 103.294 78.4191C106.644 81.6926 109.426 85.48 111.53 89.6319C112.367 92.2983 110.972 93.6655 108.18 93.6655Z" fill="white"></path> </svg> 