<?xml version="1.0" encoding="UTF-8"?> <svg xmlns="http://www.w3.org/2000/svg" width="134" height="132" viewBox="0 0 134 132" fill="none"> <path d="M134.003 29.8636C133.928 27.032 133.705 24.206 133.333 21.3968C132.833 18.9363 131.999 16.5524 130.854 14.3083C129.657 11.8739 128.049 9.65498 126.097 7.74485C124.128 5.85592 121.867 4.28324 119.397 3.08481C117.103 1.98507 114.67 1.19043 112.161 0.721977C109.32 0.305196 106.456 0.0640597 103.585 0H30.4858C27.5951 0.0737494 24.7103 0.292818 21.8426 0.656343C19.3308 1.14642 16.8972 1.96314 14.6064 3.08481C12.1213 4.25794 9.85613 5.8334 7.9062 7.74485C5.97792 9.67391 4.37247 11.889 3.14908 14.3083C2.02643 16.5554 1.21523 18.9393 0.737018 21.3968C0.311554 24.1793 0.0653943 26.9852 0 29.798C0 31.045 0 32.8172 0 33.3422V97.9264C0 98.6484 0 100.224 0 101.405C0.0752858 104.237 0.298919 107.063 0.670017 109.872C1.17031 112.332 2.00404 114.716 3.14908 116.96C4.34665 119.395 5.95493 121.614 7.9062 123.524C9.87545 125.413 12.1367 126.985 14.6064 128.184C16.9003 129.284 19.3339 130.078 21.8426 130.547C24.683 130.963 27.5474 131.205 30.4188 131.269H103.518C106.408 131.195 109.293 130.976 112.161 130.612C114.673 130.122 117.106 129.306 119.397 128.184C121.882 127.011 124.147 125.435 126.097 123.524C128.026 121.595 129.631 119.38 130.854 116.96C131.977 114.713 132.788 112.329 133.266 109.872C133.692 107.089 133.938 104.283 134.003 101.471C134.003 100.224 134.003 98.6484 134.003 97.9264V33.3422C134.003 32.8172 134.003 31.045 134.003 29.8636ZM68.5428 111.578C60.4963 111.539 52.5905 109.507 45.5612 105.671L20.1005 112.235L26.8007 87.8187C22.4798 80.707 20.1674 72.5974 20.1005 64.3217C20.1272 55.0208 22.9629 45.9356 28.2503 38.2104C33.5378 30.4852 41.0407 24.4654 49.814 20.9092C58.5872 17.3531 68.2386 16.4195 77.5524 18.2263C86.8662 20.033 95.426 24.4991 102.154 31.0621C108.881 37.6252 113.476 45.9916 115.359 55.1078C117.242 64.224 116.329 73.6821 112.736 82.2911C109.142 90.9 103.028 98.2747 95.1639 103.486C87.2998 108.698 78.0372 111.514 68.5428 111.578ZM68.5428 25.4005C61.4393 25.4801 54.4842 27.4022 48.3857 30.9711C42.2871 34.54 37.2629 39.6282 33.8245 45.7177C30.3861 51.8072 28.6563 58.6805 28.8113 65.6378C28.9663 72.5951 31.0005 79.3879 34.7069 85.3246L35.6449 86.8342L31.6248 101.208L46.9012 97.1388L48.3752 97.9921C54.4695 101.508 61.403 103.388 68.4758 103.44C79.1377 103.44 89.363 99.2907 96.9022 91.9054C104.441 84.5201 108.677 74.5035 108.677 64.0591C108.677 53.6147 104.441 43.5981 96.9022 36.2128C89.363 28.8275 79.1377 24.6785 68.4758 24.6785L68.5428 25.4005ZM91.9934 81.3209C91.1158 82.7548 89.9408 83.9923 88.5442 84.9533C87.1477 85.9143 85.5608 86.5775 83.8862 86.8999C81.3839 87.3479 78.8078 87.1902 76.382 86.4404C74.0995 85.7414 71.8621 84.9085 69.6818 83.9463C61.3986 79.8748 54.3346 73.769 49.1793 66.225C46.3778 62.7299 44.678 58.5101 44.2881 54.0827C44.2482 52.2435 44.6034 50.4167 45.3306 48.7207C46.0578 47.0246 47.1407 45.4972 48.5092 44.2375C48.9123 43.7898 49.4069 43.43 49.9609 43.1813C50.5149 42.9325 51.116 42.8005 51.7253 42.7936H53.6014C54.3384 42.7936 55.3434 42.7936 56.2814 44.8283C57.2195 46.8629 59.6985 52.9669 60.0335 53.5576C60.1982 53.8725 60.284 54.2212 60.284 54.5749C60.284 54.9287 60.1982 55.2774 60.0335 55.5923C59.7374 56.3055 59.3306 56.9697 58.8275 57.5613C58.2245 58.2833 57.5545 59.1365 57.0185 59.6616C56.4825 60.1867 55.8124 60.843 56.4825 62.0244C58.3055 65.0383 60.562 67.7793 63.1826 70.1631C66.0364 72.6333 69.2992 74.6088 72.8309 76.0046C74.0369 76.5953 74.7739 76.5296 75.4439 76.0046C76.114 75.4795 78.459 72.5916 79.263 71.4102C80.0671 70.2287 80.8711 70.4256 81.9431 70.8194C83.0151 71.2133 88.9783 74.0355 90.1843 74.6262C91.3904 75.217 92.1274 75.4795 92.4624 76.0046C92.753 77.7224 92.5915 79.4844 91.9934 81.124V81.3209Z" fill="white"></path> </svg> 